<svg width="24" height="24" viewBox="0 0 24 24" fill="none" xmlns="http://www.w3.org/2000/svg">
<g clip-path="url(#clip0_165_211)">
<path d="M24 19.2004C24 21.8504 21.8517 24 19.1991 24H4.7996C2.14964 24 0 21.851 0 19.2004V4.80026C0 2.14898 2.14898 0 4.7996 0H19.1991C21.8517 0 24 2.14898 24 4.80026V19.2004Z" fill="#0F172A"/>
<path d="M19.0298 1.83513H4.97049C3.17748 1.83513 1.72461 3.29327 1.72461 5.09222V12.8193C1.72461 14.6183 3.17748 16.0771 4.97049 16.0771H9.81294L11.4662 18.7679C11.4662 18.7679 11.484 18.7995 11.5203 18.8444C11.6165 19.0098 11.7951 19.1225 12.0002 19.1225C12.2052 19.1225 12.3818 19.0111 12.4787 18.8477C12.5203 18.7989 12.5341 18.7672 12.5341 18.7672L14.1867 16.0764H19.0298C20.8222 16.0764 22.2757 14.6183 22.2757 12.8187V5.09156C22.2757 3.29261 20.8222 1.83447 19.0298 1.83447V1.83513Z" fill="white"/>
<path d="M6.28758 7.49716C6.28758 7.49716 5.72661 7.49716 5.21837 7.99221V5.99683H3.95996V11.2388H5.23155V10.8281C5.23155 10.8281 5.53148 11.3699 6.28824 11.3699C6.28824 11.3699 8.06148 11.3047 8.06148 9.4141C8.06148 9.4141 7.99622 7.49716 6.28824 7.49716H6.28758ZM6.01072 10.2638C5.56444 10.2638 5.20189 9.9019 5.20189 9.45497C5.20189 9.00803 5.56444 8.64679 6.01072 8.64679C6.45699 8.64679 6.81889 9.00869 6.81889 9.45497C6.81889 9.90124 6.45699 10.2638 6.01072 10.2638Z" fill="#0F172A"/>
<path d="M8.46484 5.88013V7.09305C8.46484 7.09305 9.039 7.06668 9.039 8.13655V11.2394H10.2519V7.84914C10.2519 7.84914 10.304 5.88013 8.46484 5.88013Z" fill="#0F172A"/>
<path d="M13.2173 7.51367C13.2173 7.51367 11.1389 7.51367 11.1389 9.455C11.1389 9.455 11.0717 11.37 13.2173 11.37C13.2173 11.37 15.3439 11.3667 15.3439 9.455C15.3439 9.455 15.4131 7.51367 13.2173 7.51367ZM13.2173 10.2638C12.7711 10.2638 12.4085 9.90194 12.4085 9.455C12.4085 9.00807 12.7711 8.64683 13.2173 8.64683C13.6636 8.64683 14.0255 9.00873 14.0255 9.455C14.0255 9.90128 13.6636 10.2638 13.2173 10.2638Z" fill="#0F172A"/>
<path d="M18.8154 7.64077V7.99278C18.8154 7.99278 18.4535 7.51355 17.7593 7.51355C17.7593 7.51355 15.9795 7.4384 15.9795 9.4417C15.9795 9.4417 15.9597 11.3079 17.7105 11.3079C17.7105 11.3079 18.4245 11.3369 18.8154 10.8286V11.1226C18.8154 11.1226 18.9037 12.0422 18.0138 12.0422H17.7105V13.1569H18.1997C18.1997 13.1569 20.0382 13.1767 20.0382 11.1912V7.64143H18.8154V7.64077ZM18.0632 10.2637C17.6169 10.2637 17.255 9.90182 17.255 9.45488C17.255 9.00795 17.6169 8.64671 18.0632 8.64671C18.5095 8.64671 18.8714 9.00861 18.8714 9.45488C18.8714 9.90116 18.5095 10.2637 18.0632 10.2637Z" fill="#0F172A"/>
</g>
<defs>
<clipPath id="clip0_165_211">
<rect width="24" height="24" fill="white"/>
</clipPath>
</defs>
</svg>
